<svg xmlns="http://www.w3.org/2000/svg" viewBox="0 0 512 512" width="100%" height="100%">
  <rect x="14" y="14" width="484" height="484" rx="112" fill="#0c0d0e" stroke="#2c3036" stroke-width="12"/>
  <path d="M173.31 335.33Q139.50 335.33 120.88 319.57Q102.25 303.82 100.41 276.91L145.25 274.84Q147.09 286.80 153.88 293.35Q160.67 299.91 173.78 299.91Q184.13 299.91 189.76 296.34Q195.40 292.78 195.40 285.65Q195.40 281.28 193.21 277.94Q191.03 274.61 184.70 271.96Q178.38 269.32 165.95 266.79Q143.65 262.19 129.84 256.09Q116.05 250 109.72 240.34Q103.39 230.68 103.39 215.73Q103.39 200.55 111.22 189.05Q119.03 177.55 133.75 171.11Q148.47 164.67 169.18 164.67Q191.03 164.67 205.75 172.03Q220.47 179.39 228.63 192.27Q236.80 205.15 238.41 222.17L194.01 224.01Q193.09 212.74 186.54 206.41Q179.99 200.09 168.72 200.09Q159.06 200.09 153.76 204Q148.47 207.91 148.47 214.35Q148.47 221.94 154.57 225.96Q160.67 229.99 176.54 232.75Q200.69 236.89 214.72 244.02Q228.75 251.15 234.61 261.04Q240.47 270.93 240.47 283.81Q240.47 307.73 222.77 321.53Q205.06 335.33 173.31 335.33M307.40 331.65L262.32 331.65L262.32 168.35L307.40 168.35L307.40 232.98L357.31 168.35L408.38 168.35L351.11 241.26L411.60 331.65L361.69 331.65L321.67 270.47L307.40 287.95" fill="#ffffff"/>
</svg>
